<svg data-v-423bf9ae="" xmlns="http://www.w3.org/2000/svg" viewBox="0 0 230.8359157503011 183" class="iconAboveSlogan"><!----><!----><!----><g data-v-423bf9ae="" id="4638211e-3043-4358-bdd1-337b9fe257ee" fill="#E7E7E6" transform="matrix(6.19195073253312,0,0,6.19195073253312,-1.9195066819972055,97.98452090516437)"><path d="M0.31 3.14L0.73 3.14C0.90 1.61 1.19 1.30 2.83 1.30L3.65 1.30L3.65 9.20C3.65 9.98 3.61 10.01 2.11 10.09L2.11 10.50L6.58 10.50L6.58 10.09C5.08 10.01 5.04 9.98 5.04 9.20L5.04 1.30L5.87 1.30C7.50 1.30 7.80 1.61 7.97 3.14L8.39 3.14L8.39 0.81L0.31 0.81ZM8.29 10.50L11.37 10.50L11.37 10.09L10.64 10.02C10.22 9.98 10.18 9.84 10.29 9.46C10.53 8.62 10.82 7.76 11.14 6.76L14.28 6.76L15.22 9.44C15.36 9.84 15.29 10.00 14.84 10.04L14.21 10.09L14.21 10.50L17.79 10.50L17.79 10.09C16.98 10.02 16.83 9.98 16.58 9.25L13.61 0.81L12.57 0.81L11.10 4.96C10.67 6.17 10.08 7.85 9.59 9.13C9.30 9.88 9.17 10.05 8.29 10.09ZM11.33 6.23C11.77 4.83 12.26 3.46 12.68 2.23L12.73 2.23L14.11 6.23ZM18.07 10.50L22.44 10.50C26.74 10.50 27.82 7.99 27.82 5.49C27.82 3.19 26.80 0.81 22.72 0.81L18.07 0.81L18.07 1.22C19.31 1.30 19.33 1.33 19.33 2.11L19.33 9.20C19.33 9.98 19.31 10.01 18.07 10.09ZM20.72 8.75L20.72 2.10C20.72 1.37 20.85 1.30 22.34 1.30C25.31 1.30 26.25 3.18 26.25 5.54C26.25 9.07 24.53 10.01 22.18 10.01C20.96 10.01 20.72 9.86 20.72 8.75ZM28.08 10.50L31.16 10.50L31.16 10.09L30.44 10.02C30.02 9.98 29.97 9.84 30.09 9.46C30.32 8.62 30.62 7.76 30.94 6.76L34.08 6.76L35.01 9.44C35.15 9.84 35.08 10.00 34.64 10.04L34.01 10.09L34.01 10.50L37.59 10.50L37.59 10.09C36.78 10.02 36.62 9.98 36.37 9.25L33.40 0.81L32.37 0.81L30.90 4.96C30.46 6.17 29.88 7.85 29.39 9.13C29.09 9.88 28.97 10.05 28.08 10.09ZM31.12 6.23C31.57 4.83 32.06 3.46 32.48 2.23L32.52 2.23L33.91 6.23Z"></path></g><!----><g data-v-423bf9ae="" id="178c2494-e5aa-4340-bc7e-952f35eacf04" transform="matrix(2.8125,0,0,2.8125,70.57399663329124,0)" stroke="none" fill="#E7E7E6"><path d="M27.377 11.377L16 0 4.623 11.377 16 22.753l11.377-11.376zM16 6.026l5.35 5.35L16 16.727l-5.35-5.35L16 6.026zM27.426 14.969l-5.664 5.664V32h5.664zM10.238 20.633l-5.664-5.664V32h5.664z"></path></g><!----><g data-v-423bf9ae="" id="e3fc9547-1776-46ba-bad6-4b9e4a196782" fill="#E7E7E6" transform="matrix(0.8042689827683142,0,0,0.8042689827683142,29.50112283189017,202.87108781917777)"><path d="M0.40 8.09L0.33 5.89L7.40 5.89L7.16 8.16L6.82 8.12L6.70 6.24L4.16 6.24L4.16 13.90L5.37 14.08L5.30 14.40L2.20 14.40L2.24 14.11L3.43 13.90L3.43 6.24L1.00 6.24L0.76 8.15L0.40 8.09ZM15.80 13.04L15.80 13.04Q15.80 13.47 16.06 13.79Q16.32 14.10 16.76 14.10L16.76 14.10Q17.23 14.10 17.63 13.83Q18.03 13.56 18.29 13.13L18.29 13.13L18.29 11.44Q17.83 11.51 17.50 11.58Q17.17 11.66 16.83 11.78Q16.49 11.90 16.28 12.06Q16.07 12.22 15.94 12.47Q15.80 12.72 15.80 13.04ZM15.12 13.24L15.12 13.24Q15.12 12.37 15.92 11.80Q16.71 11.23 18.29 11.14L18.29 11.14L18.29 10.87Q18.29 9.74 18.01 9.25Q17.74 8.75 16.98 8.75L16.98 8.75Q16.46 8.75 16.23 9.13Q16.00 9.52 15.91 10.23L15.91 10.23Q15.67 10.23 15.51 10.11Q15.35 9.99 15.35 9.78L15.35 9.78Q15.35 9.26 15.99 8.83Q16.63 8.40 17.34 8.40L17.34 8.40Q18.14 8.40 18.52 8.91Q18.90 9.43 18.90 10.51L18.90 10.51L18.90 12.83Q18.90 13.03 18.90 13.14Q18.91 13.24 18.93 13.40Q18.94 13.56 18.98 13.64Q19.02 13.73 19.08 13.83Q19.15 13.92 19.25 13.98Q19.36 14.03 19.50 14.05L19.50 14.05L19.95 14.14L19.92 14.38Q19.60 14.52 19.23 14.52L19.23 14.52Q18.83 14.52 18.60 14.25Q18.38 13.99 18.38 13.60L18.38 13.60L18.38 13.51L18.34 13.51Q18.21 13.88 17.70 14.23Q17.19 14.57 16.54 14.57L16.54 14.57Q15.97 14.57 15.54 14.21Q15.12 13.84 15.12 13.24ZM28.62 6.24L28.62 6.24Q28.62 5.58 29.04 5.58L29.04 5.58Q29.48 5.58 29.48 6.24L29.48 6.24Q29.48 6.94 29.05 6.94Q28.62 6.94 28.62 6.24ZM30.41 14.40L27.63 14.40L27.72 14.18L28.75 13.99L28.75 9.01L27.70 8.82L27.72 8.63L29.33 8.50L29.39 8.56L29.39 13.99L30.48 14.17L30.41 14.40ZM40.04 6.19L40.04 14.03L41.28 14.03Q43.08 14.03 44.18 12.95Q45.27 11.87 45.27 10.12L45.27 10.12Q45.27 8.20 44.22 7.18Q43.17 6.16 41.23 6.16L41.23 6.16Q40.24 6.16 40.04 6.19L40.04 6.19ZM41.09 14.40L38.14 14.40L38.20 14.11L39.35 13.90L39.35 6.51L38.18 6.36L38.25 6.12Q40.33 5.79 41.49 5.79L41.49 5.79Q42.45 5.79 43.23 6.03Q44.00 6.26 44.52 6.66Q45.03 7.05 45.37 7.59Q45.71 8.13 45.86 8.71Q46.01 9.29 46.01 9.92L46.01 9.92Q46.01 10.64 45.84 11.28Q45.67 11.93 45.29 12.50Q44.91 13.08 44.34 13.49Q43.78 13.91 42.95 14.15Q42.12 14.40 41.09 14.40L41.09 14.40ZM54.43 13.04L54.43 13.04Q54.43 13.47 54.69 13.79Q54.95 14.10 55.38 14.10L55.38 14.10Q55.86 14.10 56.26 13.83Q56.66 13.56 56.91 13.13L56.91 13.13L56.91 11.44Q56.45 11.51 56.12 11.58Q55.79 11.66 55.45 11.78Q55.11 11.90 54.90 12.06Q54.69 12.22 54.56 12.47Q54.43 12.72 54.43 13.04ZM53.74 13.24L53.74 13.24Q53.74 12.37 54.54 11.80Q55.34 11.23 56.91 11.14L56.91 11.14L56.91 10.87Q56.91 9.74 56.64 9.25Q56.36 8.75 55.60 8.75L55.60 8.75Q55.08 8.75 54.85 9.13Q54.63 9.52 54.54 10.23L54.54 10.23Q54.30 10.23 54.14 10.11Q53.98 9.99 53.98 9.78L53.98 9.78Q53.98 9.26 54.62 8.83Q55.25 8.40 55.97 8.40L55.97 8.40Q56.76 8.40 57.14 8.91Q57.52 9.43 57.52 10.51L57.52 10.51L57.52 12.83Q57.52 13.03 57.53 13.14Q57.53 13.24 57.55 13.40Q57.57 13.56 57.60 13.64Q57.64 13.73 57.71 13.83Q57.77 13.92 57.88 13.98Q57.98 14.03 58.13 14.05L58.13 14.05L58.58 14.14L58.54 14.38Q58.22 14.52 57.85 14.52L57.85 14.52Q57.45 14.52 57.22 14.25Q57.00 13.99 57.00 13.60L57.00 13.60L57.00 13.51L56.96 13.51Q56.83 13.88 56.32 14.23Q55.82 14.57 55.17 14.57L55.17 14.57Q54.59 14.57 54.17 14.21Q53.74 13.84 53.74 13.24ZM68.95 14.40L66.28 14.40L66.33 14.18L67.38 14.01L67.38 9.01L66.33 8.83L66.34 8.63L67.94 8.50L67.98 8.56L67.96 9.50L68.00 9.50Q68.30 9.11 68.92 8.75Q69.55 8.38 70.20 8.38L70.20 8.38Q70.86 8.38 71.29 8.87Q71.71 9.36 71.71 10.40L71.71 10.40L71.71 14.01L72.65 14.14L72.63 14.40L70.05 14.40L70.09 14.18L71.06 14.01L71.06 10.58Q71.06 9.73 70.73 9.32Q70.41 8.92 69.92 8.92L69.92 8.92Q69.34 8.92 68.96 9.12Q68.58 9.31 68.02 9.85L68.02 9.85L68.02 14.01L68.99 14.15L68.95 14.40ZM83.03 14.40L80.31 14.40L80.38 14.16L81.44 13.99L81.44 6.26L80.39 6.05L80.43 5.84L82.06 5.70L82.11 5.77L82.11 8.75L82.04 9.47L82.07 9.47Q82.50 9.01 83.07 8.70Q83.65 8.38 84.22 8.38L84.22 8.38Q84.95 8.38 85.35 8.89Q85.74 9.40 85.74 10.46L85.74 10.46L85.74 14.01L86.70 14.14L86.66 14.40L84.10 14.40L84.14 14.17L85.10 14.01L85.12 10.64L85.12 10.60Q85.12 9.73 84.80 9.32Q84.48 8.91 83.92 8.91L83.92 8.91Q83.34 8.91 82.92 9.15Q82.50 9.39 82.11 9.86L82.11 9.86L82.11 13.99L83.08 14.15L83.03 14.40ZM97.17 14.40L94.34 14.40L94.38 14.17L95.52 13.96L96.09 6.36L94.83 6.14L94.88 5.89L97.06 5.89L97.54 7.18L99.69 12.84L102.14 6.88L102.55 5.89L104.78 5.89L104.75 6.14L103.57 6.34L103.95 14.01L105.18 14.12L105.16 14.40L102.01 14.40L102.05 14.17L103.22 13.96L102.83 6.41L99.65 13.99L99.31 14.05L96.52 6.53L95.98 14.01L97.21 14.12L97.17 14.40ZM113.64 11.03L113.64 11.03L116.29 10.88Q116.35 10.75 116.35 10.26L116.35 10.26Q116.35 9.65 116.00 9.23Q115.64 8.80 115.13 8.80L115.13 8.80Q114.45 8.80 114.05 9.39Q113.64 9.98 113.64 11.03ZM112.92 11.59L112.92 11.59Q112.92 10.12 113.67 9.27Q114.42 8.42 115.47 8.42L115.47 8.42Q116.25 8.42 116.65 8.90Q117.05 9.37 117.05 10.42L117.05 10.42Q117.05 10.82 116.93 11.31L116.93 11.31L113.63 11.36Q113.63 11.94 113.74 12.42Q113.86 12.89 114.10 13.26Q114.34 13.62 114.73 13.83Q115.12 14.03 115.64 14.03L115.64 14.03Q116.55 14.03 117.12 13.46L117.12 13.46L117.24 13.69Q116.93 14.10 116.42 14.35Q115.90 14.59 115.25 14.59L115.25 14.59Q114.22 14.59 113.57 13.83Q112.92 13.07 112.92 11.59ZM124.98 11.70L124.98 11.70Q124.98 10.20 125.70 9.31Q126.42 8.42 127.54 8.42L127.54 8.42Q128.34 8.42 128.70 8.76Q129.06 9.10 129.06 9.57L129.06 9.57Q129.06 10.08 128.61 10.21L128.61 10.21Q128.37 9.49 128.05 9.16Q127.74 8.84 127.22 8.84L127.22 8.84Q126.57 8.84 126.12 9.48Q125.67 10.12 125.67 11.30L125.67 11.30Q125.67 14.09 127.61 14.09L127.61 14.09Q128.08 14.09 128.51 13.89Q128.94 13.69 129.22 13.41L129.22 13.41L129.34 13.64Q129.09 14.03 128.51 14.31Q127.93 14.59 127.29 14.59L127.29 14.59Q126.18 14.59 125.58 13.78Q124.98 12.97 124.98 11.70ZM139.70 14.40L136.98 14.40L137.05 14.16L138.11 13.99L138.11 6.26L137.06 6.05L137.10 5.84L138.73 5.70L138.78 5.77L138.78 8.75L138.71 9.47L138.74 9.47Q139.17 9.01 139.74 8.70Q140.32 8.38 140.89 8.38L140.89 8.38Q141.62 8.38 142.02 8.89Q142.41 9.40 142.41 10.46L142.41 10.46L142.41 14.01L143.37 14.14L143.33 14.40L140.77 14.40L140.81 14.17L141.77 14.01L141.79 10.64L141.79 10.60Q141.79 9.73 141.47 9.32Q141.15 8.91 140.59 8.91L140.59 8.91Q140.01 8.91 139.59 9.15Q139.17 9.39 138.78 9.86L138.78 9.86L138.78 13.99L139.75 14.15L139.70 14.40ZM151.74 13.04L151.74 13.04Q151.74 13.47 152.00 13.79Q152.26 14.10 152.69 14.10L152.69 14.10Q153.17 14.10 153.57 13.83Q153.97 13.56 154.22 13.13L154.22 13.13L154.22 11.44Q153.76 11.51 153.43 11.58Q153.10 11.66 152.76 11.78Q152.42 11.90 152.21 12.06Q152.00 12.22 151.87 12.47Q151.74 12.72 151.74 13.04ZM151.05 13.24L151.05 13.24Q151.05 12.37 151.85 11.80Q152.65 11.23 154.22 11.14L154.22 11.14L154.22 10.87Q154.22 9.74 153.95 9.25Q153.67 8.75 152.91 8.75L152.91 8.75Q152.39 8.75 152.16 9.13Q151.94 9.52 151.85 10.23L151.85 10.23Q151.61 10.23 151.45 10.11Q151.29 9.99 151.29 9.78L151.29 9.78Q151.29 9.26 151.93 8.83Q152.56 8.40 153.28 8.40L153.28 8.40Q154.07 8.40 154.45 8.91Q154.83 9.43 154.83 10.51L154.83 10.51L154.83 12.83Q154.83 13.03 154.84 13.14Q154.84 13.24 154.86 13.40Q154.88 13.56 154.91 13.64Q154.95 13.73 155.02 13.83Q155.08 13.92 155.19 13.98Q155.29 14.03 155.44 14.05L155.44 14.05L155.89 14.14L155.85 14.38Q155.53 14.52 155.16 14.52L155.16 14.52Q154.76 14.52 154.53 14.25Q154.31 13.99 154.31 13.60L154.31 13.60L154.31 13.51L154.27 13.51Q154.14 13.88 153.63 14.23Q153.13 14.57 152.48 14.57L152.48 14.57Q151.90 14.57 151.48 14.21Q151.05 13.84 151.05 13.24ZM166.26 14.40L163.59 14.40L163.64 14.18L164.69 14.01L164.69 9.01L163.64 8.83L163.65 8.63L165.25 8.50L165.29 8.56L165.27 9.50L165.31 9.50Q165.61 9.11 166.23 8.75Q166.86 8.38 167.51 8.38L167.51 8.38Q168.17 8.38 168.59 8.87Q169.02 9.36 169.02 10.40L169.02 10.40L169.02 14.01L169.96 14.14L169.93 14.40L167.36 14.40L167.40 14.18L168.37 14.01L168.37 10.58Q168.37 9.73 168.04 9.32Q167.72 8.92 167.23 8.92L167.23 8.92Q166.65 8.92 166.27 9.12Q165.89 9.31 165.33 9.85L165.33 9.85L165.33 14.01L166.30 14.15L166.26 14.40ZM178.61 6.24L178.61 6.24Q178.61 5.58 179.03 5.58L179.03 5.58Q179.47 5.58 179.47 6.24L179.47 6.24Q179.47 6.94 179.04 6.94Q178.61 6.94 178.61 6.24ZM180.40 14.40L177.63 14.40L177.71 14.18L178.74 13.99L178.74 9.01L177.69 8.82L177.71 8.63L179.33 8.50L179.38 8.56L179.38 13.99L180.48 14.17L180.40 14.40ZM188.19 11.70L188.19 11.70Q188.19 10.20 188.91 9.31Q189.63 8.42 190.76 8.42L190.76 8.42Q191.55 8.42 191.91 8.76Q192.27 9.10 192.27 9.57L192.27 9.57Q192.27 10.08 191.82 10.21L191.82 10.21Q191.58 9.49 191.26 9.16Q190.95 8.84 190.43 8.84L190.43 8.84Q189.78 8.84 189.33 9.48Q188.88 10.12 188.88 11.30L188.88 11.30Q188.88 14.09 190.83 14.09L190.83 14.09Q191.29 14.09 191.72 13.89Q192.15 13.69 192.43 13.41L192.43 13.41L192.55 13.64Q192.30 14.03 191.72 14.31Q191.15 14.59 190.50 14.59L190.50 14.59Q189.40 14.59 188.79 13.78Q188.19 12.97 188.19 11.70ZM200.92 13.04L200.92 13.04Q200.92 13.47 201.18 13.79Q201.44 14.10 201.88 14.10L201.88 14.10Q202.35 14.10 202.75 13.83Q203.15 13.56 203.40 13.13L203.40 13.13L203.40 11.44Q202.95 11.51 202.61 11.58Q202.28 11.66 201.94 11.78Q201.61 11.90 201.40 12.06Q201.19 12.22 201.06 12.47Q200.92 12.72 200.92 13.04ZM200.24 13.24L200.24 13.24Q200.24 12.37 201.03 11.80Q201.83 11.23 203.40 11.14L203.40 11.14L203.40 10.87Q203.40 9.74 203.13 9.25Q202.86 8.75 202.10 8.75L202.10 8.75Q201.58 8.75 201.35 9.13Q201.12 9.52 201.03 10.23L201.03 10.23Q200.79 10.23 200.63 10.11Q200.47 9.99 200.47 9.78L200.47 9.78Q200.47 9.26 201.11 8.83Q201.75 8.40 202.46 8.40L202.46 8.40Q203.25 8.40 203.64 8.91Q204.02 9.43 204.02 10.51L204.02 10.51L204.02 12.83Q204.02 13.03 204.02 13.14Q204.03 13.24 204.04 13.40Q204.06 13.56 204.10 13.64Q204.13 13.73 204.20 13.83Q204.26 13.92 204.37 13.98Q204.48 14.03 204.62 14.05L204.62 14.05L205.07 14.14L205.04 14.38Q204.72 14.52 204.35 14.52L204.35 14.52Q203.94 14.52 203.72 14.25Q203.49 13.99 203.49 13.60L203.49 13.60L203.49 13.51L203.46 13.51Q203.33 13.88 202.82 14.23Q202.31 14.57 201.66 14.57L201.66 14.57Q201.09 14.57 200.66 14.21Q200.24 13.84 200.24 13.24ZM215.52 14.40L212.74 14.40L212.81 14.18L213.86 13.99L213.86 6.23L212.81 6.04L212.81 5.84L214.42 5.71L214.48 5.77L214.48 13.99L215.59 14.17L215.52 14.40Z"></path></g></svg>