<svg data-v-423bf9ae="" xmlns="http://www.w3.org/2000/svg" viewBox="0 0 230.8359157503011 60" class="font"><!----><!----><!----><g data-v-423bf9ae="" id="6dc2d738-272e-4679-ba3b-0dc8e04cbef2" fill="white" transform="matrix(6.19195073253312,0,0,6.19195073253312,-1.9195066819972055,-5.015481002184259)"><path d="M0.31 3.14L0.73 3.14C0.90 1.61 1.19 1.30 2.83 1.30L3.65 1.30L3.65 9.20C3.65 9.98 3.61 10.01 2.11 10.09L2.11 10.50L6.58 10.50L6.58 10.09C5.08 10.01 5.04 9.98 5.04 9.20L5.04 1.30L5.87 1.30C7.50 1.30 7.80 1.61 7.97 3.14L8.39 3.14L8.39 0.81L0.31 0.81ZM8.29 10.50L11.37 10.50L11.37 10.09L10.64 10.02C10.22 9.98 10.18 9.84 10.29 9.46C10.53 8.62 10.82 7.76 11.14 6.76L14.28 6.76L15.22 9.44C15.36 9.84 15.29 10.00 14.84 10.04L14.21 10.09L14.21 10.50L17.79 10.50L17.79 10.09C16.98 10.02 16.83 9.98 16.58 9.25L13.61 0.81L12.57 0.81L11.10 4.96C10.67 6.17 10.08 7.85 9.59 9.13C9.30 9.88 9.17 10.05 8.29 10.09ZM11.33 6.23C11.77 4.83 12.26 3.46 12.68 2.23L12.73 2.23L14.11 6.23ZM18.07 10.50L22.44 10.50C26.74 10.50 27.82 7.99 27.82 5.49C27.82 3.19 26.80 0.81 22.72 0.81L18.07 0.81L18.07 1.22C19.31 1.30 19.33 1.33 19.33 2.11L19.33 9.20C19.33 9.98 19.31 10.01 18.07 10.09ZM20.72 8.75L20.72 2.10C20.72 1.37 20.85 1.30 22.34 1.30C25.31 1.30 26.25 3.18 26.25 5.54C26.25 9.07 24.53 10.01 22.18 10.01C20.96 10.01 20.72 9.86 20.72 8.75ZM28.08 10.50L31.16 10.50L31.16 10.09L30.44 10.02C30.02 9.98 29.97 9.84 30.09 9.46C30.32 8.62 30.62 7.76 30.94 6.76L34.08 6.76L35.01 9.44C35.15 9.84 35.08 10.00 34.64 10.04L34.01 10.09L34.01 10.50L37.59 10.50L37.59 10.09C36.78 10.02 36.62 9.98 36.37 9.25L33.40 0.81L32.37 0.81L30.90 4.96C30.46 6.17 29.88 7.85 29.39 9.13C29.09 9.88 28.97 10.05 28.08 10.09ZM31.12 6.23C31.57 4.83 32.06 3.46 32.48 2.23L32.52 2.23L33.91 6.23Z"></path></g><!----><!----></svg>